<svg width="428" height="345" viewBox="0 0 428 345" fill="none" xmlns="http://www.w3.org/2000/svg">
<path fill-rule="evenodd" clip-rule="evenodd" d="M34.6041 0L260.378 43.8861L229.259 203.981L229.258 203.98C213.377 284.715 150.192 340.308 87.9585 328.211C25.7245 316.114 -12.0341 240.899 3.48515 160.095H3.48485L3.52095 159.909L3.5401 159.81L3.56925 159.659L3.61785 159.41L34.6041 0ZM80.3382 74.1879C65.7802 71.3581 53.189 65.8665 44.6649 59.3035C43.8258 72.7217 58.9133 86.3228 79.739 90.371C101.696 94.639 121.716 86.672 124.456 72.5764L123.257 72.3434C112.574 76.4678 96.997 77.4261 80.3382 74.1879ZM154.607 80.6735C163.131 87.2368 175.722 92.7287 190.28 95.559C206.939 98.7971 222.516 97.8387 233.2 93.7142L234.398 93.947C231.658 108.043 211.638 116.01 189.681 111.742C168.855 107.694 153.767 94.0919 154.607 80.6735ZM106.484 219.671C141.658 225.791 166.812 246.986 163.747 267.506C153.369 255.55 131.022 244.43 103.926 239.09C73.3771 233.069 45.7109 236.151 33.1382 245.7C38.1826 225.097 70.7983 213.461 106.484 219.671Z" fill="#FEFEFE"/>
<path fill-rule="evenodd" clip-rule="evenodd" d="M197.08 39.1039L269.379 53.2852L264.071 80.8375C284.596 82.363 300.716 93.5247 301.729 106.633C292.375 101.32 279.142 97.6341 264.332 96.858C263.217 96.7996 262.109 96.7584 261.009 96.7342L238.26 214.836L238.259 214.835C233.753 237.948 225.441 259.019 214.423 277.067C234.71 317.213 269.586 343.825 309.421 344.173C372.818 344.726 424.814 278.55 425.717 196.273L427.14 33.188L197.149 31.181L197.08 39.1039ZM376.309 97.9481C391.094 99.1121 404.226 103.143 413.438 108.699C412.753 95.2723 396.222 83.4659 375.072 81.8012C352.773 80.0463 333.784 90.2283 332.657 104.544L333.873 104.64C344.021 99.3323 359.39 96.6166 376.309 97.9481ZM247.785 253.692C247.425 274.437 275.13 292.167 310.803 293.644C346.993 295.142 377.811 279.349 380.123 258.264C368.905 269.372 341.877 276.039 310.804 274.057C283.243 272.299 259.635 264.192 247.785 253.692Z" fill="#FEFEFE"/>
</svg>
