<svg width="317" height="265" viewBox="0 0 317 265" fill="none" xmlns="http://www.w3.org/2000/svg">
<ellipse cx="234" cy="155.5" rx="83" ry="108.5" fill="#FBFBFB"/>
<rect x="151" y="39" width="166" height="117" fill="#FBFBFB"/>
<ellipse cx="235" cy="221.233" rx="30" ry="7.23334" transform="rotate(180 235 221.233)" fill="black"/>
<rect x="265" y="229" width="60" height="7.80001" transform="rotate(180 265 229)" fill="black"/>
<ellipse cx="195.5" cy="97.2333" rx="21.5" ry="7.23334" transform="rotate(-180 195.5 97.2333)" fill="black"/>
<rect x="217" y="105" width="43" height="7.80001" transform="rotate(-180 217 105)" fill="black"/>
<ellipse cx="273.5" cy="97.2333" rx="21.5" ry="7.23334" transform="rotate(-180 273.5 97.2333)" fill="black"/>
<rect x="295" y="105" width="43" height="7.80001" transform="rotate(-180 295 105)" fill="black"/>
<ellipse cx="109.383" cy="142.675" rx="83" ry="108.5" transform="rotate(10.5 109.383 142.675)" fill="black"/>
<rect x="49.003" y="13" width="166" height="117" transform="rotate(10.5 49.003 13)" fill="black"/>
<ellipse cx="98.2898" cy="208.014" rx="30" ry="7.23334" transform="rotate(10.5 98.2898 208.014)" fill="black"/>
<rect x="70.2076" y="194.91" width="60" height="7.80001" transform="rotate(10.5 70.2076 194.91)" fill="black"/>
<ellipse cx="82.0485" cy="78.8921" rx="21.5" ry="7.23334" transform="rotate(10.5 82.0485 78.8921)" fill="black"/>
<rect x="62.3239" y="67.3374" width="43" height="7.80001" transform="rotate(10.5 62.3239 67.3374)" fill="black"/>
<ellipse cx="158.742" cy="93.1065" rx="21.5" ry="7.23334" transform="rotate(10.5 158.742 93.1065)" fill="black"/>
<rect x="139.018" y="81.5518" width="43" height="7.80001" transform="rotate(10.5 139.018 81.5518)" fill="black"/>
<ellipse cx="101.383" cy="129.675" rx="83" ry="108.5" transform="rotate(10.5 101.383 129.675)" fill="#FBFBFB"/>
<rect x="41.003" width="166" height="117" transform="rotate(10.5 41.003 0)" fill="#FBFBFB"/>
<ellipse cx="90.2898" cy="195.014" rx="30" ry="7.23334" transform="rotate(10.5 90.2898 195.014)" fill="black"/>
<rect x="62.2076" y="181.91" width="60" height="7.80001" transform="rotate(10.5 62.2076 181.91)" fill="black"/>
<ellipse cx="74.0485" cy="65.8921" rx="21.5" ry="7.23334" transform="rotate(10.5 74.0485 65.8921)" fill="black"/>
<rect x="54.3239" y="54.3374" width="43" height="7.80001" transform="rotate(10.5 54.3239 54.3374)" fill="black"/>
<ellipse cx="150.742" cy="80.1065" rx="21.5" ry="7.23334" transform="rotate(10.5 150.742 80.1065)" fill="black"/>
<rect x="131.018" y="68.5518" width="43" height="7.80001" transform="rotate(10.5 131.018 68.5518)" fill="black"/>
</svg>
