<?xml version="1.0" encoding="UTF-8"?>
<svg fill="none" viewBox="0 0 288 279" xmlns="http://www.w3.org/2000/svg">
<rect width="16.586" height="278.95" rx="8.2932" fill="#fff"/>
<rect x="271.41" y="125.15" width="16.586" height="153.8" rx="8.2932" fill="#fff"/>
<rect y="262.37" width="288" height="16.586" rx="8.2932" fill="#fff"/>
<rect width="110.07" height="16.586" rx="8.2932" fill="#fff"/>
<circle cx="60.314" cy="223.16" r="17.61" stroke="#fff" stroke-width="7"/>
<circle cx="116.1" cy="223.16" r="21.11" fill="#fff"/>
<circle cx="116.1" cy="223.16" r="21.11" fill="#fff"/>
<circle cx="171.9" cy="223.16" r="21.11" fill="#fff"/>
<circle cx="171.9" cy="223.16" r="21.11" fill="#fff"/>
<circle cx="227.69" cy="223.16" r="18.11" stroke="#fff" stroke-width="6"/>
<circle cx="60.314" cy="167.37" r="21.11" fill="#fff"/>
<circle cx="60.314" cy="167.37" r="21.11" fill="#fff"/>
<circle cx="116.1" cy="167.37" r="17.61" stroke="#fff" stroke-width="7"/>
<circle cx="171.9" cy="167.37" r="17.61" stroke="#fff" stroke-width="7"/>
<circle cx="227.69" cy="167.37" r="21.11" fill="#fff"/>
<circle cx="227.69" cy="167.37" r="21.11" fill="#fff"/>
<circle cx="60.314" cy="111.58" r="21.11" fill="#fff"/>
<circle cx="60.314" cy="111.58" r="21.11" fill="#fff"/>
<circle cx="116.1" cy="111.58" r="17.61" stroke="#fff" stroke-width="7"/>
<circle cx="60.314" cy="55.791" r="17.61" stroke="#fff" stroke-width="7"/>
<circle cx="171.9" cy="111.58" r="21.11" fill="#fff"/>
<circle cx="171.9" cy="111.58" r="21.11" fill="#fff"/>
<rect transform="rotate(-45 36.468 37.944)" x="36.468" y="37.944" width="8.4848" height="305.59" rx="4.2424" fill="#fff"/>
</svg>
