<?xml version="1.0" encoding="UTF-8"?>
<svg viewBox="0 0 306 259" xmlns="http://www.w3.org/2000/svg">
<path d="m140 229.14v7.861c0 12.15 9.85 22 22 22h122c12.15 0 22-9.85 22-22v-122c0-12.15-9.85-22-22-22h-56.62l8.823 8.823c8.592 8.592 8.592 22.522 0 31.113l-96.203 96.203z" clip-rule="evenodd" fill="#fff" fill-rule="evenodd"/>
<rect transform="rotate(-45 0 117.38)" y="117.38" width="166" height="166" rx="22" fill="#fff"/>
<circle cx="117" cy="117" r="13"/>
<circle cx="117" cy="117" r="13"/>
<circle cx="117" cy="117" r="13"/>
<circle cx="117" cy="117" r="13"/>
<circle cx="117" cy="44" r="13"/>
<circle cx="117" cy="44" r="13"/>
<circle cx="117" cy="44" r="13"/>
<circle cx="117" cy="44" r="13"/>
<circle cx="117" cy="190" r="13"/>
<circle cx="117" cy="190" r="13"/>
<circle cx="117" cy="190" r="13"/>
<circle cx="117" cy="190" r="13"/>
<circle cx="190" cy="118" r="13"/>
<circle cx="190" cy="118" r="13"/>
<circle cx="190" cy="118" r="13"/>
<circle cx="190" cy="118" r="13"/>
<circle cx="44" cy="117" r="13"/>
<circle cx="44" cy="117" r="13"/>
<circle cx="44" cy="117" r="13"/>
<circle cx="44" cy="117" r="13"/>
<circle cx="223" cy="176" r="13"/>
<circle cx="223" cy="176" r="13"/>
<circle cx="223" cy="176" r="13"/>
<circle cx="223" cy="176" r="13"/>
</svg>
