<svg width="297" height="250" viewBox="0 0 297 250" fill="none" xmlns="http://www.w3.org/2000/svg">
<path fill-rule="evenodd" clip-rule="evenodd" d="M6.44365 92.7107C-2.14788 101.302 -2.14789 115.232 6.44365 123.823L92.7107 210.09C101.302 218.682 115.232 218.682 123.823 210.09L210.09 123.823C218.682 115.232 218.682 101.302 210.09 92.7107L123.823 6.44365C115.232 -2.14788 101.302 -2.14789 92.7107 6.44365L6.44365 92.7107ZM107.887 47.8873C115.067 47.8873 120.887 42.067 120.887 34.8873C120.887 27.7076 115.067 21.8873 107.887 21.8873C100.708 21.8873 94.8873 27.7076 94.8873 34.8873C94.8873 42.067 100.708 47.8873 107.887 47.8873ZM120.887 180.887C120.887 188.067 115.067 193.887 107.887 193.887C100.708 193.887 94.8872 188.067 94.8872 180.887C94.8872 173.708 100.708 167.887 107.887 167.887C115.067 167.887 120.887 173.708 120.887 180.887ZM180.887 121.887C188.067 121.887 193.887 116.067 193.887 108.887C193.887 101.708 188.067 95.8873 180.887 95.8873C173.708 95.8873 167.887 101.708 167.887 108.887C167.887 116.067 173.708 121.887 180.887 121.887ZM47.8872 107.887C47.8872 115.067 42.0669 120.887 34.8872 120.887C27.7075 120.887 21.8872 115.067 21.8872 107.887C21.8872 100.708 27.7075 94.8873 34.8872 94.8873C42.0669 94.8873 47.8872 100.708 47.8872 107.887ZM108 121C115.18 121 121 115.18 121 108C121 100.82 115.18 95 108 95C100.82 95 95 100.82 95 108C95 115.18 100.82 121 108 121Z" fill="white"/>
<path fill-rule="evenodd" clip-rule="evenodd" d="M130.887 227.887V220.026L227.09 123.823C235.682 115.232 235.682 101.302 227.09 92.7107L218.267 83.8873H274.887C287.037 83.8873 296.887 93.737 296.887 105.887V227.887C296.887 240.038 287.037 249.887 274.887 249.887H152.887C140.737 249.887 130.887 240.038 130.887 227.887ZM213.887 179.887C221.067 179.887 226.887 174.067 226.887 166.887C226.887 159.708 221.067 153.887 213.887 153.887C206.708 153.887 200.887 159.708 200.887 166.887C200.887 174.067 206.708 179.887 213.887 179.887Z" fill="white"/>
</svg>
