<svg width="294" height="216" viewBox="0 0 294 216" fill="none" xmlns="http://www.w3.org/2000/svg">
<rect y="202" width="106" height="14" rx="7" fill="white"/>
<rect x="12" y="183" width="82" height="14" rx="7" fill="white"/>
<rect x="23" y="163" width="60" height="14" rx="7" fill="white"/>
<rect x="212" y="202" width="82" height="14" rx="7" fill="white"/>
<rect x="228" y="183" width="50" height="14" rx="7" fill="white"/>
<rect x="138" y="202" width="30" height="14" rx="7" fill="white"/>
<path fill-rule="evenodd" clip-rule="evenodd" d="M52.5 0C49.4624 0 47 2.46246 47 5.5V157H58V5.5C58 2.46246 55.5376 0 52.5 0Z" fill="white"/>
<path fill-rule="evenodd" clip-rule="evenodd" d="M152.5 0C149.462 0 147 2.46246 147 5.5V197H158V5.5C158 2.46246 155.538 0 152.5 0Z" fill="white"/>
<path fill-rule="evenodd" clip-rule="evenodd" d="M252.5 0C249.462 0 247 2.46246 247 5.5V178H258V5.5C258 2.46246 255.538 0 252.5 0Z" fill="white"/>
</svg>
